<?xml version="1.0" encoding="UTF-8"?>
<svg width="410px" height="410px" viewBox="0 0 410 410" version="1.1" xmlns="http://www.w3.org/2000/svg" xmlns:xlink="http://www.w3.org/1999/xlink">
    <!-- Generator: Sketch 62 (91390) - https://sketch.com -->
    <title>INITIATEDINTERACTIONSTUDYWITHFRAMERXFROMOCTOBER2019TOJANUARY2020</title>
    <desc>Created with Sketch.</desc>
    <g id="01" stroke="none" stroke-width="1" fill="none" fill-rule="evenodd">
        <g id="pc_main" transform="translate(-755.000000, -875.000000)" fill="#FFFFFF" fill-rule="nonzero">
            <g id="Group" transform="translate(755.000000, 875.000000)">
                <path d="M225.351515,408.677503 L223.598101,391.727956 L221.592802,391.935402 L223.346217,408.884949 L225.351515,408.677503 Z M234.968882,407.393046 L232.549128,393.953138 L244.322491,405.709 L246.070388,405.394304 L243.051011,388.623944 L241.114153,388.972661 L243.533907,402.412569 L231.760544,390.656707 L230.012647,390.971403 L233.032023,407.741763 L234.968882,407.393046 Z M255.60243,403.379959 L251.3276,386.884886 L249.37607,387.39064 L253.6509,403.885713 L255.60243,403.379959 Z M269.233509,399.241853 L264.402743,384.838361 L269.340433,383.182317 L268.752805,381.430234 L256.966061,385.383372 L257.55369,387.135455 L262.49138,385.479411 L267.322145,399.882902 L269.233509,399.241853 Z M282.629995,394.461301 L276.094371,378.72449 L274.232551,379.497719 L280.768175,395.23453 L282.629995,394.461301 Z M290.411062,391.029466 L289.937702,385.845466 L296.934956,382.344979 L300.799623,385.832423 L302.731381,384.866031 L288.968924,372.697592 L287.058631,373.653247 L288.543697,391.963645 L290.411062,391.029466 Z M295.442771,381.025121 L289.754819,383.87061 L288.980187,375.187675 L295.442771,381.025121 Z M312.068124,379.334301 L304.051297,366.429753 L308.475131,363.681488 L307.499941,362.111741 L296.939821,368.672114 L297.915012,370.241862 L302.338845,367.493597 L310.355672,380.398145 L312.068124,379.334301 Z M330.399139,366.712093 L329.304015,365.253437 L322.874411,370.08063 L319.19998,365.186455 L324.900256,360.906823 L323.805131,359.448167 L318.104856,363.727798 L314.819482,359.351829 L321.057157,354.668731 L319.976442,353.229267 L312.126568,359.122766 L322.357336,372.749688 L330.399139,366.712093 Z M340.403806,358.305834 C341.40886,357.389611 342.181889,356.408862 342.72289,355.363588 C343.263891,354.318314 343.573731,353.251027 343.652411,352.161725 C343.73109,351.072424 343.574085,349.997708 343.181395,348.937579 C342.788705,347.877449 342.155806,346.868505 341.2827,345.910747 C340.420372,344.964813 339.482218,344.250383 338.468236,343.767458 C337.454254,343.284533 336.404001,343.03494 335.317476,343.018681 C334.230952,343.002422 333.142061,343.221064 332.050803,343.674607 C330.959546,344.128149 329.911389,344.813032 328.906334,345.729255 L328.906334,345.729255 L324.738312,349.528886 L336.218047,362.121633 L340.403806,358.305834 Z M339.105611,356.988647 L336.462908,359.397775 L327.473144,349.536412 L330.115847,347.127285 C330.908067,346.405085 331.72557,345.870931 332.568355,345.524821 C333.411141,345.17871 334.256868,345.013949 335.105536,345.030536 C335.954203,345.047124 336.774602,345.246448 337.566731,345.62851 C338.358861,346.010571 339.099856,346.579976 339.789718,347.336723 C340.47958,348.09347 340.97818,348.883846 341.285519,349.70785 C341.592857,350.531855 341.718585,351.364451 341.662703,352.205639 C341.606821,353.046827 341.364724,353.873742 340.936411,354.686385 C340.508098,355.499027 339.897831,356.266448 339.105611,356.988647 L339.105611,356.988647 Z M359.808478,339.036007 L346.888277,327.926101 L345.573866,329.454688 L358.494066,340.564594 L359.808478,339.036007 Z M365.907292,331.504908 L354.917908,323.398135 L371.549264,323.85676 L372.603572,322.427561 L358.890984,312.311903 L357.722697,313.895611 L368.712081,322.002384 L352.080724,321.543758 L351.026416,322.972958 L364.739004,333.088615 L365.907292,331.504908 Z M380.391151,310.507822 L367.351747,302.712259 L370.024159,298.242194 L368.438007,297.293919 L362.0587,307.964395 L363.644852,308.91267 L366.317264,304.442606 L379.356668,312.238169 L380.391151,310.507822 Z M390.891679,290.889115 L389.249544,290.095156 L385.749855,297.33351 L380.240063,294.669568 L383.342773,288.25228 L381.700639,287.458321 L378.597929,293.875608 L373.671526,291.49373 L377.066747,284.471446 L375.44622,283.687934 L371.173465,292.525208 L386.514455,299.94246 L390.891679,290.889115 Z M394.678306,282.270985 L388.282434,279.846438 C388.489736,279.480135 388.677824,279.119382 388.846696,278.764178 C389.015569,278.408973 389.15672,278.08176 389.270149,277.782538 C389.360893,277.543161 389.442737,277.304688 389.515684,277.067119 C389.58863,276.82955 389.654487,276.610683 389.713255,276.410517 L389.713255,276.410517 L397.307024,275.336513 L398.140728,273.137231 L389.900113,274.428027 C389.879769,273.308098 389.591593,272.330471 389.035585,271.495146 C388.479577,270.659822 387.700376,270.052166 386.697982,269.672178 C385.72551,269.303534 384.789464,269.222474 383.889845,269.429 C382.990225,269.635525 382.177196,270.110152 381.450755,270.85288 C380.724315,271.595608 380.131401,272.572896 379.672013,273.784746 L379.672013,273.784746 L378.030127,278.115985 L393.963702,284.156084 L394.678306,282.270985 Z M387.612547,277.077175 C387.487775,277.406319 387.335281,277.763454 387.155065,278.148581 C386.974849,278.533707 386.789598,278.88698 386.59931,279.208399 L386.59931,279.208399 L380.427855,276.868925 L381.355137,274.422784 C381.83154,273.166052 382.483541,272.292439 383.31114,271.801947 C384.13874,271.311455 385.053737,271.256202 386.056131,271.636189 C387.058525,272.016177 387.697551,272.67764 387.973211,273.620577 C388.24887,274.563515 388.128649,275.715714 387.612547,277.077175 Z M400.51695,266.163006 L396.342495,263.053047 L398.410474,255.507291 L403.587202,254.960104 L404.158116,252.87692 L385.909868,254.992935 L385.345297,257.052973 L399.965066,268.176751 L400.51695,266.163006 Z M396.431546,255.736383 L394.75052,261.870203 L387.77069,256.647619 L396.431546,255.736383 Z M407.178949,240.115691 C407.35177,239.09015 407.344346,238.099138 407.15668,237.142654 C406.969013,236.186171 406.612848,235.314871 406.088185,234.528756 C405.563522,233.742641 404.891324,233.085808 404.071592,232.558255 L404.071592,232.558255 L403.07818,234.264905 C403.997545,234.971503 404.654323,235.792051 405.048515,236.726548 C405.442707,237.661045 405.548075,238.672618 405.364619,239.761269 C405.218386,240.629034 404.913845,241.401162 404.450994,242.077655 C403.988144,242.754147 403.399913,243.3081 402.686302,243.739515 C401.97269,244.17093 401.169241,244.461457 400.275955,244.611097 C399.382669,244.760737 398.431145,244.750476 397.421382,244.580314 C396.395842,244.407494 395.474448,244.09808 394.657199,243.652074 C393.839951,243.206068 393.153087,242.660342 392.596606,242.014895 C392.040125,241.369449 391.64093,240.657211 391.399021,239.878181 C391.157112,239.099151 391.107944,238.283642 391.251518,237.431654 C391.429656,236.374559 391.86201,235.469826 392.54858,234.717455 C393.23515,233.965084 394.116639,233.428098 395.193046,233.106498 L395.193046,233.106498 L394.813812,231.168534 C393.869117,231.382526 393.02472,231.77162 392.28062,232.335814 C391.536521,232.900009 390.917137,233.590686 390.422469,234.407847 C389.9278,235.225007 389.595385,236.138469 389.425224,237.148232 C389.273673,238.047552 389.276042,238.924133 389.432329,239.777975 C389.588615,240.631817 389.883752,241.431986 390.317738,242.178482 C390.751724,242.924978 391.302887,243.60198 391.971228,244.209487 C392.639568,244.816994 393.405408,245.327352 394.268747,245.740561 C395.132086,246.15377 396.076526,246.446785 397.102066,246.619606 C398.36427,246.832308 399.561098,246.831173 400.692552,246.616202 C401.824006,246.401231 402.840714,246.000611 403.742677,245.414342 C404.64464,244.828074 405.39432,244.086338 405.991717,243.189135 C406.589114,242.291933 406.984858,241.267451 407.178949,240.115691 Z M409.199193,220.397835 L394.045154,219.324541 L394.413092,214.129554 L392.569709,213.998996 L391.691406,226.399931 L393.534788,226.53049 L393.902726,221.335504 L409.056765,222.408798 L409.199193,220.397835 Z M409.939935,206.195666 L392.899975,206.158569 L392.895586,208.174565 L409.935546,208.211662 L409.939935,206.195666 Z M409.723644,190.777176 C409.648634,189.804063 409.434969,188.905827 409.082649,188.082469 C408.730329,187.259111 408.260523,186.525047 407.673233,185.880275 C407.085943,185.235504 406.39835,184.694749 405.610454,184.25801 C404.822559,183.821271 403.963508,183.50235 403.033301,183.301245 C402.103094,183.10014 401.119528,183.039552 400.082604,183.11948 C398.774485,183.220313 397.589724,183.516242 396.528322,184.007267 C395.46692,184.498292 394.562004,185.145754 393.813573,185.949652 C393.065142,186.753549 392.510312,187.674915 392.149082,188.71375 C391.787852,189.752584 391.65335,190.870227 391.745575,192.066678 C391.820584,193.039791 392.034249,193.938027 392.38657,194.761384 C392.73889,195.584742 393.208695,196.318807 393.795986,196.963578 C394.383276,197.60835 395.070869,198.149105 395.858764,198.585844 C396.64666,199.022582 397.505711,199.341504 398.435918,199.542609 C399.366125,199.743713 400.34969,199.804302 401.386614,199.724373 C402.694734,199.623541 403.879495,199.327612 404.940897,198.836587 C406.002299,198.345561 406.907215,197.6981 407.655646,196.894202 C408.404077,196.090305 408.958907,195.168939 409.320137,194.130104 C409.681366,193.09127 409.815869,191.973627 409.723644,190.777176 Z M407.877421,190.871344 C407.947512,191.780647 407.836282,192.627701 407.543732,193.412506 C407.251183,194.19731 406.807373,194.893478 406.212304,195.501008 C405.617236,196.108539 404.892992,196.601658 404.039573,196.980367 C403.186154,197.359076 402.240983,197.588394 401.204059,197.668322 C400.167135,197.748251 399.201973,197.666184 398.308573,197.422124 C397.415174,197.178064 396.627902,196.801455 395.946756,196.292298 C395.265611,195.78314 394.720354,195.163212 394.310986,194.432513 C393.901618,193.701813 393.661889,192.881812 393.591798,191.972509 C393.521707,191.063207 393.632937,190.216153 393.925486,189.431348 C394.218036,188.646543 394.661845,187.950376 395.256914,187.342845 C395.851983,186.735315 396.572239,186.242503 397.417681,185.864409 C398.263124,185.486315 399.204307,185.257304 400.241231,185.177376 C401.278155,185.097448 402.247305,185.179206 403.148681,185.422652 C404.050056,185.666098 404.841317,186.042399 405.522462,186.551556 C406.203608,187.060713 406.748864,187.680642 407.158232,188.411341 C407.5676,189.142041 407.80733,189.962042 407.877421,190.871344 Z M407.468129,173.465133 L394.043915,175.970491 L405.724505,164.122447 L405.398677,162.376591 L388.6479,165.502785 L389.008954,167.437382 L402.433167,164.932024 L390.752577,176.780068 L391.078406,178.525924 L407.829182,175.39973 L407.468129,173.465133 Z M400.210589,141.329108 C399.951565,140.555311 399.59527,139.881565 399.141703,139.30787 C398.688137,138.734176 398.165153,138.280736 397.572751,137.947551 C396.980349,137.614366 396.340051,137.415322 395.651857,137.35042 C394.963662,137.285518 394.263011,137.372421 393.549904,137.611129 C392.427139,137.986968 391.589356,138.659699 391.036555,139.629323 C390.483753,140.598947 390.281703,141.860321 390.430404,143.413444 L390.430404,143.413444 L390.538024,144.491013 C390.645772,145.669774 390.559654,146.584415 390.279669,147.234935 C389.999684,147.885455 389.510724,148.32753 388.812789,148.561159 C388.281751,148.738921 387.772026,148.766131 387.283613,148.642789 C386.795201,148.519448 386.357224,148.269551 385.969683,147.893099 C385.582143,147.516647 385.289334,147.032557 385.091257,146.440829 C384.832233,145.667032 384.818637,144.920751 385.050468,144.201987 C385.2823,143.483223 385.749498,142.837525 386.452063,142.264893 L386.452063,142.264893 L385.281244,140.65741 C384.629148,141.128785 384.113796,141.706239 383.73519,142.389772 C383.356584,143.073305 383.134894,143.809765 383.07012,144.599152 C383.005346,145.38854 383.11009,146.192891 383.38435,147.012206 C383.61798,147.710141 383.945103,148.321943 384.365721,148.847613 C384.786339,149.373283 385.27766,149.79514 385.839685,150.113184 C386.401709,150.431229 387.001521,150.622735 387.639119,150.687701 C388.276717,150.752667 388.929311,150.673415 389.596901,150.449943 C390.704494,150.079183 391.513169,149.395105 392.022928,148.397707 C392.532687,147.40031 392.705598,146.10229 392.54166,144.50365 L392.54166,144.50365 L392.43404,143.426081 C392.326485,142.399109 392.426602,141.551491 392.734393,140.883227 C393.042183,140.214962 393.567805,139.756397 394.311257,139.507531 C394.887812,139.314533 395.45699,139.288512 396.01879,139.42947 C396.580589,139.570427 397.08186,139.858191 397.522601,140.292761 C397.963341,140.727332 398.292908,141.270826 398.511301,141.923243 C398.790641,142.757731 398.815696,143.563448 398.586468,144.340395 C398.35724,145.117342 397.89893,145.789592 397.211538,146.357145 L397.211538,146.357145 L398.382356,147.964627 C399.044547,147.473001 399.559866,146.870249 399.928314,146.156371 C400.296763,145.442493 400.507025,144.671895 400.559102,143.844576 C400.611178,143.017258 400.495007,142.178768 400.210589,141.329108 Z M393.250771,123.97915 L379.321347,130.042814 L377.24265,125.267641 L375.548234,126.005243 L380.510285,137.404045 L382.204701,136.666442 L380.126004,131.891269 L394.055428,125.827604 L393.250771,123.97915 Z M385.484807,106.958485 C384.987425,106.063394 384.389821,105.33382 383.691996,104.769763 C382.994172,104.205706 382.228762,103.816486 381.395767,103.602104 C380.562772,103.387722 379.690943,103.350507 378.780278,103.490457 C377.869614,103.630408 376.945757,103.960732 376.00871,104.481429 L376.00871,104.481429 L366.882983,109.552397 L367.862205,111.314606 L376.924995,106.27861 C377.876029,105.750142 378.790953,105.46139 379.669768,105.412354 C380.548582,105.363319 381.347773,105.541572 382.06734,105.947114 C382.786906,106.352655 383.383723,106.981993 383.857791,107.835126 C384.331859,108.688259 384.551059,109.527429 384.515393,110.352637 C384.479727,111.177845 384.209005,111.950625 383.703227,112.670978 C383.197449,113.391331 382.469043,114.015742 381.51801,114.544211 L381.51801,114.544211 L372.455219,119.580207 L373.434441,121.342416 L382.560167,116.271448 C383.497215,115.750751 384.271079,115.142265 384.881758,114.44599 C385.492437,113.749715 385.926725,112.991294 386.184622,112.170728 C386.442518,111.350161 386.514702,110.500085 386.401173,109.620499 C386.287645,108.740913 385.982189,107.853575 385.484807,106.958485 Z M374.738164,90.1748544 C373.960836,89.0588972 373.089274,88.1645705 372.123479,87.4918743 C371.157684,86.8191782 370.139918,86.3727981 369.070179,86.152734 C368.000441,85.93267 366.914429,85.94818 365.812142,86.199264 C364.709855,86.4503481 363.62699,86.9462643 362.563549,87.6870126 C361.513236,88.4186158 360.682562,89.2555893 360.071526,90.197933 C359.460491,91.1402767 359.076066,92.1490112 358.918251,93.2241365 C358.760436,94.2992619 358.835208,95.4073671 359.142565,96.5484523 C359.449923,97.6895374 359.992266,98.8180586 360.769594,99.9340158 L360.769594,99.9340158 L363.993221,104.561956 L377.975509,94.8224879 L374.738164,90.1748544 Z M373.262928,91.2901866 L375.306845,94.2244977 L364.357335,101.851461 L362.313418,98.9171504 C361.700701,98.0375135 361.277719,97.1573326 361.044473,96.2766077 C360.811227,95.3958829 360.758165,94.5358919 360.885286,93.696635 C361.012407,92.857378 361.317018,92.0699797 361.799119,91.33444 C362.28122,90.5989004 362.942395,89.9384892 363.782646,89.3532066 C364.622896,88.767924 365.471545,88.3766555 366.328592,88.1794011 C367.18564,87.9821466 368.027522,87.9660717 368.854239,88.1311762 C369.680955,88.2962808 370.469237,88.6441494 371.219083,89.1747822 C371.968929,89.705415 372.65021,90.4105498 373.262928,91.2901866 L373.262928,91.2901866 Z M361.714874,72.8987697 L356.485853,77.3453229 L344.846891,79.3665932 L346.308345,81.0852224 L355.733766,79.2765393 L352.434017,88.2888388 L353.926566,90.0440347 L357.791834,78.8811193 L363.020855,74.4345661 L361.714874,72.8987697 Z M342.402,53.1197966 L329.882885,61.4895146 L336.180272,47.8030342 L334.611156,46.4621499 L319.654766,56.0954525 L321.242127,57.4519285 L333.675322,49.0719265 L327.427364,62.7375075 L328.99648,64.0783919 L341.484411,55.7451649 L335.145225,69.3327875 L336.805569,70.7516303 L343.989362,54.4762726 L342.402,53.1197966 Z M323.907942,37.7882105 L314.076937,51.7062896 L315.723583,52.8693945 L325.554588,38.9513154 L323.907942,37.7882105 Z M311.94543,30.0508017 L304.062758,43.0377312 L299.610683,40.3354565 L298.651811,41.9152251 L309.279346,48.3658165 L310.238217,46.7860479 L305.786142,44.0837731 L313.668814,31.0968436 L311.94543,30.0508017 Z M299.601694,23.0027741 L296.162186,30.1635646 L287.638466,26.0694069 L291.077974,18.9086164 L289.260734,18.0357503 L281.882937,33.395754 L283.700177,34.2686201 L286.838339,27.7352101 L295.362059,31.8293678 L292.223898,38.3627778 L294.041137,39.2356439 L301.418934,23.8756402 L299.601694,23.0027741 Z M271.653447,10.9398521 L269.374914,18.072764 L262.813549,15.9768059 L262.251219,17.737172 L268.812584,19.8331301 L267.030654,25.411433 L259.806295,23.1036882 L259.243964,24.8640543 L268.388723,27.7852502 L273.573846,11.5533032 L271.653447,10.9398521 Z M255.635367,6.17494805 L254.123573,12.8457859 C253.732006,12.6914234 253.348607,12.5553174 252.973374,12.4374679 C252.598142,12.3196185 252.254482,12.2253301 251.942396,12.1546029 C251.692728,12.0980212 251.445192,12.0501256 251.199789,12.0109163 C250.954386,11.971707 250.728488,11.9369182 250.522096,11.9065498 L250.522096,11.9065498 L248.402774,4.5358448 L246.108942,4.01599976 L248.53288,11.9971284 C247.426655,12.1729767 246.498587,12.5942719 245.748676,13.261014 C244.998764,13.9277561 244.505341,14.7838711 244.268404,15.8293592 C244.038541,16.8436386 244.088405,17.7818633 244.417998,18.6440332 C244.74759,19.5062031 245.330641,20.2453507 246.167152,20.8614759 C247.003662,21.4776012 248.053891,21.9288864 249.31784,22.2153317 L249.31784,22.2153317 L253.835284,23.2391081 L257.601509,6.62052952 L255.635367,6.17494805 Z M251.474336,13.894173 C251.817631,13.9719729 252.192499,14.0733339 252.59894,14.1982561 C253.005381,14.3231783 253.380979,14.4575161 253.725732,14.6012696 L253.725732,14.6012696 L252.266983,21.038043 L249.71568,20.459848 C248.404919,20.1627937 247.449144,19.6385814 246.848356,18.8872113 C246.247567,18.1358411 246.065641,17.237412 246.302577,16.1919239 C246.539513,15.1464359 247.10571,14.4216532 248.001166,14.0175758 C248.896622,13.6134984 250.054345,13.5723641 251.474336,13.894173 Z M238.866657,2.63473055 L236.374002,7.20469703 L228.612555,6.21731544 L227.343527,1.16880206 L225.200797,0.896212052 L229.859486,18.6662066 L231.978409,18.9357679 L240.937963,2.89823423 L238.866657,2.63473055 Z M229.117391,8.14443268 L235.426543,8.94705881 L231.236336,16.5913754 L229.117391,8.14443268 Z M216.852048,0.253899095 L216.615246,13.5477902 L211.437636,3.71001669 L209.853887,3.68180568 L204.329195,13.3289412 L204.565997,0.0350500435 L202.598309,0 L202.294827,17.0372973 L204.118538,17.0697827 L210.585005,5.75915637 L216.620554,17.2924787 L218.516254,17.3262464 L218.819736,0.288949139 L216.852048,0.253899095 Z M184.858848,0.868042523 L185.007827,2.68594824 L193.020964,2.02926342 L193.520828,8.12881548 L186.416644,8.71101068 L186.565624,10.5289164 L193.669808,9.9467212 L194.116745,15.4004383 L186.342807,16.0375206 L186.489826,17.8315065 L196.273029,17.029763 L194.881249,0.0466964328 L184.858848,0.868042523 Z M175.518957,1.97363847 L176.669486,8.71618127 C176.248648,8.72306684 175.842331,8.74370596 175.450533,8.77809864 C175.058736,8.81249132 174.705117,8.85660061 174.389677,8.91042652 C174.137324,8.95348725 173.89026,9.00376117 173.648485,9.06124828 C173.40671,9.11873539 173.18465,9.17285838 172.982305,9.22361725 L172.982305,9.22361725 L168.208622,3.22105393 L165.890133,3.61667436 L171.178474,10.0670497 C170.223266,10.6520567 169.52645,11.3958631 169.088027,12.2984689 C168.649604,13.2010747 168.520551,14.1807406 168.700868,15.2374666 C168.875802,16.2626486 169.280212,17.1107075 169.9141,17.7816435 C170.547987,18.4525795 171.369135,18.9130178 172.377544,19.1629585 C173.385954,19.4128992 174.528926,19.4288721 175.80646,19.2108772 L175.80646,19.2108772 L180.372463,18.4317471 L177.506233,1.63453524 L175.518957,1.97363847 Z M174.621473,10.6968907 C174.968458,10.6376822 175.353621,10.5881903 175.776962,10.5484151 C176.200304,10.5086398 176.598735,10.4893463 176.972257,10.4904829 L176.972257,10.4904829 L178.082416,16.996497 L175.50369,17.4365238 C174.178839,17.6625926 173.095309,17.5431469 172.2531,17.0781867 C171.410891,16.6132264 170.899628,15.8523833 170.719312,14.7956573 C170.538995,13.7389313 170.785462,12.852849 171.458714,12.1374104 C172.131965,11.4219718 173.186218,10.9417986 174.621473,10.6968907 Z M158.623637,5.11331853 L155.805633,13.5199432 L149.164682,7.6454011 L146.753576,8.29083391 L155.085439,15.3773501 L151.80904,24.5774992 L154.034676,23.9817151 L156.513483,16.5354664 L162.403996,21.7413185 L164.699184,21.1269161 L157.264708,14.7939781 L160.942008,4.49271006 L158.623637,5.11331853 Z M130.227978,13.9257001 L133.113876,20.8352397 L126.757985,23.4898957 L127.47021,25.1951347 L133.8261,22.5404787 L136.08302,27.944093 L129.084897,30.8669895 L129.797122,32.5722284 L138.655506,28.8723595 L132.088238,13.1487276 L130.227978,13.9257001 Z M114.9431,20.670653 L118.108592,26.7340897 C117.710203,26.8698769 117.329856,27.0142941 116.967551,27.1673412 C116.605247,27.3203884 116.28226,27.4709585 115.99859,27.6190517 C115.771654,27.7375262 115.551967,27.8612413 115.339528,27.990197 C115.127089,28.1191527 114.932379,28.2388525 114.755398,28.3492966 L114.755398,28.3492966 L108.369058,24.1027119 L106.284087,25.1911967 L113.297734,29.7059103 C112.56833,30.5559835 112.133597,31.4778338 111.993538,32.4714612 C111.853479,33.4650885 112.031505,34.4370487 112.527617,35.3873417 C113.00892,36.3092678 113.654219,36.9921597 114.463513,37.4360176 C115.272808,37.8798755 116.195675,38.0659011 117.232113,37.9940943 C118.268551,37.9222876 119.361201,37.5864956 120.510062,36.9867183 L120.510062,36.9867183 L124.616179,34.8430698 L116.730218,19.737666 L114.9431,20.670653 Z M116.767788,29.2480139 C117.079825,29.0851114 117.431179,28.919732 117.82185,28.7518755 C118.212522,28.584019 118.585777,28.4433041 118.941616,28.3297309 L118.941616,28.3297309 L121.996037,34.1804155 L119.677038,35.3910771 C118.485626,36.0130683 117.417771,36.2321332 116.473473,36.0482717 C115.529175,35.8644102 114.80897,35.297333 114.312858,34.34704 C113.816746,33.396747 113.779199,32.477792 114.200217,31.5901751 C114.621235,30.7025582 115.477092,29.9218378 116.767788,29.2480139 Z M94.0704089,32.0848495 C93.2551135,32.6213841 92.5724409,33.2430256 92.0223912,33.949774 C91.4723415,34.6565224 91.0572855,35.4228752 90.7772233,36.2488323 C90.4971611,37.0747894 90.3566626,37.9381898 90.3557229,38.8390333 C90.3547927,39.7398769 90.4913945,40.6459784 90.765533,41.5573379 C91.0396716,42.4686973 91.4625994,43.3587558 92.0343167,44.2275132 C92.7555599,45.323484 93.5878426,46.2170933 94.5311648,46.9083409 C95.474487,47.5995885 96.4789861,48.0781923 97.5446621,48.3441522 C98.610338,48.6101122 99.6851294,48.6498049 100.769036,48.4632302 C101.852943,48.2766555 102.896103,47.8535313 103.898515,47.1938576 C104.71381,46.657323 105.396483,46.0356815 105.946533,45.3289331 C106.496582,44.6221847 106.911638,43.8558319 107.191701,43.0298748 C107.471763,42.2039177 107.612261,41.3405173 107.613201,40.4396738 C107.614131,39.5388302 107.477529,38.6327287 107.203391,37.7213692 C106.929252,36.8100098 106.506324,35.9199513 105.934607,35.0511939 C105.213364,33.9552231 104.381081,33.0616138 103.437759,32.3703662 C102.494437,31.6791186 101.489938,31.2005148 100.424262,30.9345549 C99.3585858,30.6685949 98.2837944,30.6289022 97.1998877,30.8154769 C96.1159809,31.0020516 95.0728213,31.4251758 94.0704089,32.0848495 Z M95.0462099,33.6549516 C95.8080434,33.1535995 96.6031428,32.8410473 97.4315083,32.717295 C98.2598737,32.5935426 99.0838657,32.6450525 99.9034841,32.8718247 C100.723103,33.098597 101.505106,33.4937767 102.249494,34.0573639 C102.993882,34.6209512 103.651934,35.3371235 104.223651,36.205881 C104.795369,37.0746384 105.190595,37.9589845 105.409331,38.8589193 C105.628066,39.7588542 105.679451,40.6300554 105.563484,41.4725231 C105.447518,42.3149907 105.168856,43.0921417 104.727499,43.8039761 C104.286143,44.5158104 103.684547,45.1224035 102.922714,45.6237555 C102.160881,46.1251076 101.365781,46.4376597 100.537416,46.5614121 C99.7090501,46.6851645 98.8850582,46.6336546 98.0654398,46.4068824 C97.2458213,46.1801101 96.4660171,45.7882718 95.7260269,45.2313673 C94.9860368,44.6744628 94.3301832,43.9616318 93.758466,43.0928744 C93.1867488,42.224117 92.7893234,41.3364295 92.5661899,40.4298119 C92.3430564,39.5231943 92.2894729,38.6486517 92.4054394,37.806184 C92.5214059,36.9637164 92.8000676,36.1865654 93.2414245,35.474731 C93.6827814,34.7628967 94.2843765,34.1563036 95.0462099,33.6549516 Z M80.0325728,42.4489314 L88.5623887,52.6482381 L78.2057991,48.6071377 L76.9907192,49.6233252 L79.1363146,60.5313892 L70.6064987,50.3320825 L69.0968541,51.5946184 L80.0285675,64.6659321 L81.4277504,63.4957768 L78.9039719,50.7139141 L91.0195172,55.4740547 L92.473931,54.2577091 L81.5422175,41.1863955 L80.0325728,42.4489314 Z M51.3670304,68.7189711 C50.7273138,69.4560862 50.2383005,70.2392503 49.8999905,71.0684634 C49.5616806,71.8976765 49.3694563,72.7477458 49.3233176,73.6186713 C49.2771789,74.4895968 49.3755292,75.3588075 49.6183685,76.2263034 C49.8612078,77.0937992 50.2378764,77.9291439 50.7483744,78.7323374 C51.2588724,79.5355309 51.9068467,80.2779603 52.6922972,80.9596255 C53.6831732,81.8195724 54.7261945,82.4546619 55.821361,82.8648939 C56.9165275,83.2751259 58.0130545,83.464093 59.110942,83.4317952 C60.2088294,83.3994975 61.2542716,83.1469056 62.2472685,82.6740196 C63.2402654,82.2011336 64.1300322,81.5115461 64.9165691,80.6052571 C65.5562857,79.868142 66.0452989,79.0849779 66.3836089,78.2557648 C66.7219189,77.4265517 66.9141432,76.5764824 66.9602819,75.7055569 C67.0064205,74.8346314 66.9080702,73.9654207 66.665231,73.0979248 C66.4223917,72.230429 66.0457231,71.3950843 65.5352251,70.5918908 C65.0247271,69.7886973 64.3767528,69.0462679 63.5913023,68.3646027 C62.6004263,67.5046558 61.557405,66.8695663 60.4622385,66.4593343 C59.3670719,66.0491023 58.270545,65.8601352 57.1726575,65.8924329 C56.0747701,65.9247307 55.0293279,66.1773226 54.036331,66.6502086 C53.0433341,67.1230945 52.1535672,67.812682 51.3670304,68.7189711 Z M52.7312541,69.9664893 C53.3290221,69.2777097 54.0098984,68.761687 54.7738832,68.4184214 C55.537868,68.0751558 56.3450627,67.9017987 57.1954673,67.8982984 C58.045872,67.8949015 58.9056301,68.0637565 59.7747417,68.404915 C60.6438532,68.7460735 61.4711342,69.2574854 62.2565848,69.9391506 C63.0420353,70.6208158 63.6617958,71.3652411 64.1158662,72.1724263 C64.5699367,72.9796115 64.8551238,73.8044147 64.9714274,74.6468359 C65.0877311,75.4892571 65.0296313,76.312818 64.7974401,77.1175185 C64.5651449,77.922219 64.1501134,78.6689592 63.5523454,79.3577388 C62.9545774,80.0465185 62.273701,80.5625412 61.5097163,80.9058068 C60.7457315,81.2490724 59.9385368,81.4224295 59.0881321,81.4259306 C58.2377274,81.4293267 57.3809903,81.2630935 56.5179207,80.9271786 C55.6548511,80.5912636 54.830591,80.0824736 54.0451405,79.4008083 C53.25969,78.7191431 52.6369085,77.9720961 52.1767961,77.1596673 C51.7166837,76.3472384 51.4284757,75.5198134 51.312172,74.6773922 C51.1958684,73.8349711 51.2539681,73.0114102 51.4861593,72.2067097 C51.7184545,71.4020091 52.1334861,70.655269 52.7312541,69.9664893 Z M37.0166398,86.8159199 C36.4227724,87.6696889 36.0066509,88.5691348 35.7682754,89.5142576 C35.5298999,90.4593804 35.480261,91.3993549 35.6193587,92.334181 C35.7584563,93.2690071 36.0861455,94.1498588 36.6024262,94.9767362 L36.6024262,94.9767362 L38.2290514,93.8570887 C37.6990556,92.8257709 37.4551636,91.803434 37.4973752,90.7900781 C37.5395869,89.7767222 37.8758993,88.8168899 38.5063124,87.9105813 C39.0088155,87.1881614 39.6136892,86.6197813 40.3209333,86.2054412 C41.0281774,85.791101 41.7965331,85.5410818 42.6260003,85.4553836 C43.4554674,85.3696854 44.3060717,85.4497376 45.1778131,85.6955404 C46.0495544,85.9413431 46.9057422,86.35661 47.7463763,86.941341 C48.6001453,87.5352084 49.3014438,88.2081753 49.8502717,88.9602417 C50.3990996,89.7123081 50.78746,90.4989314 51.0153529,91.3201116 C51.2432458,92.1412917 51.3003901,92.9557698 51.1867858,93.7635458 C51.0731815,94.5713218 50.769696,95.3298523 50.2763292,96.0391373 C49.664189,96.9191761 48.8871425,97.5529511 47.9451896,97.9404621 C47.0032367,98.3279731 45.9768962,98.4375224 44.8661679,98.26911 L44.8661679,98.26911 L44.3822797,100.183626 C45.3279723,100.393163 46.2576656,100.401543 47.1713599,100.208766 C48.0850541,100.015989 48.9399209,99.655608 49.7359602,99.1276219 C50.5319996,98.5996358 51.2223848,97.9153257 51.8071157,97.0746916 C52.3278917,96.3260019 52.6997606,95.5322049 52.9227223,94.6933008 C53.145684,93.8543967 53.2201684,93.0047921 53.1461756,92.1444869 C53.0721828,91.2841817 52.8625627,90.4367317 52.5173154,89.602137 C52.1720682,88.7675423 51.6971914,87.9792098 51.0926852,87.2371396 C50.4881789,86.4950694 49.7590413,85.8271006 48.9052723,85.2332332 C47.8544797,84.5023195 46.7715749,83.9926948 45.6565581,83.704359 C44.5415413,83.4160233 43.4510903,83.3445481 42.3852052,83.4899336 C41.3193201,83.635319 40.3248276,83.9862844 39.4017277,84.5428296 C38.4786279,85.0993749 37.6835985,85.8570716 37.0166398,86.8159199 Z M26.7668861,103.768119 L39.9979567,111.233749 L37.438649,115.769519 L39.0481157,116.67766 L45.1574308,105.850339 L43.5479641,104.942197 L40.9886564,109.477967 L27.7575858,102.012337 L26.7668861,103.768119 Z M17.8463844,120.497109 C17.4542633,121.390874 17.2197221,122.283886 17.1427609,123.176145 C17.0657997,124.068403 17.1345317,124.937221 17.348957,125.782597 C17.5633823,126.627974 17.9152772,127.42883 18.4046416,128.185165 C18.8940061,128.941499 19.5016276,129.627412 20.227506,130.242903 C20.9533844,130.858393 21.7925103,131.375055 22.7448835,131.792889 C23.946339,132.320003 25.1308539,132.616914 26.2984283,132.683624 C27.4660026,132.750333 28.5692062,132.605343 29.6080389,132.248655 C30.6468716,131.891967 31.5702403,131.340476 32.3781449,130.594182 C33.1860496,129.847889 33.83106,128.925296 34.313176,127.826404 C34.7052971,126.932638 34.9398383,126.039626 35.0167995,125.147368 C35.0937607,124.255109 35.0250287,123.386292 34.8106034,122.540915 C34.5961781,121.695538 34.2442832,120.894682 33.7549188,120.138348 C33.2655543,119.382013 32.6579328,118.6961 31.9320544,118.08061 C31.206176,117.465119 30.3670501,116.948457 29.4146769,116.530623 C28.2132214,116.003509 27.0287065,115.706598 25.8611321,115.639889 C24.6935578,115.573179 23.5903542,115.718169 22.5515215,116.074857 C21.5126888,116.431545 20.5893201,116.983036 19.7814155,117.72933 C18.9735108,118.475624 18.3285004,119.398216 17.8463844,120.497109 Z M19.5193937,121.283523 C19.8858019,120.448365 20.382847,119.753514 21.0105289,119.198969 C21.6382108,118.644425 22.3575834,118.239309 23.1686468,117.983621 C23.9797101,117.727933 24.850844,117.634009 25.7820485,117.701849 C26.713253,117.769689 27.6550418,118.012526 28.6074151,118.43036 C29.5597883,118.848194 30.372564,119.375136 31.0457422,120.011185 C31.7189203,120.647235 32.2360536,121.350232 32.5971419,122.120177 C32.9582303,122.890122 33.1472752,123.693787 33.1642767,124.531173 C33.1812783,125.368559 33.0065749,126.204831 32.6401667,127.039989 C32.2737585,127.875147 31.7767134,128.569998 31.1490315,129.124543 C30.5213496,129.679087 29.801977,130.084203 28.9909136,130.339891 C28.1798503,130.595579 27.3123794,130.69111 26.3885008,130.626484 C25.4646223,130.561858 24.5264964,130.320628 23.5741232,129.902795 C22.6217499,129.484961 21.8053113,128.956412 21.1248072,128.317148 C20.4443031,127.677884 19.9235068,126.97328 19.5624185,126.203335 C19.2013301,125.43339 19.0122852,124.629725 18.9952837,123.792339 C18.9782822,122.954953 19.1529855,122.118681 19.5193937,121.283523 Z M10.5607411,140.243177 C10.1980606,141.370261 10.0697438,142.408883 10.1757907,143.359042 C10.2818377,144.3092 10.6002317,145.121792 11.1309727,145.796817 C11.6617136,146.471841 12.3916256,146.958837 13.3207085,147.257803 C14.2954841,147.571473 15.2216652,147.592174 16.0992519,147.319906 C16.9768386,147.047639 17.7149733,146.50359 18.3136559,145.687759 C18.4232849,146.496203 18.7138378,147.186382 19.1853144,147.758296 C19.6567911,148.33021 20.288532,148.743596 21.0805371,148.998452 C21.9182348,149.268012 22.7142559,149.301455 23.4686003,149.098782 C24.2229447,148.896109 24.8877331,148.475528 25.4629656,147.837039 C26.038198,147.198551 26.4900006,146.369072 26.8183735,145.348604 L26.8183735,145.348604 L28.487194,140.162494 L12.2663197,134.942835 L10.5607411,140.243177 Z M19.9481969,143.037026 L20.9700737,139.86139 L26.1561843,141.53021 L25.1343074,144.705846 C24.8206378,145.680622 24.3509281,146.369874 23.7251783,146.773603 C23.0994285,147.177333 22.3677048,147.244417 21.530007,146.974857 C20.6923093,146.705298 20.1383819,146.232912 19.8682248,145.5577 C19.5980677,144.882488 19.6247251,144.042263 19.9481969,143.037026 L19.9481969,143.037026 Z M12.288917,140.748857 L13.3622552,137.413297 L19.3022937,139.324721 L18.2289554,142.660281 C17.8564727,143.817827 17.3058014,144.628097 16.5769413,145.09109 C15.8480812,145.554084 15.0114942,145.633647 14.0671804,145.329779 C13.1380975,145.030813 12.5175541,144.478163 12.2055503,143.671829 C11.8935465,142.865496 11.9213354,141.891172 12.288917,140.748857 L12.288917,140.748857 Z M4.55015968,162.355643 L6.328971,162.759136 L8.1075239,154.918322 L14.075904,156.272146 L12.4990974,163.223554 L14.2779087,163.627046 L15.8547153,156.675639 L21.1911493,157.886117 L19.4656875,165.492876 L21.2210934,165.891059 L23.3925207,156.318246 L6.77467808,152.548775 L4.55015968,162.355643 Z M2.8022496,171.605085 L9.57983105,172.527034 C9.46034334,172.930611 9.35832708,173.324454 9.27378226,173.708564 C9.18923744,174.092674 9.12539898,174.443268 9.08226687,174.760348 C9.04776118,175.014012 9.02172164,175.264791 9.00414825,175.512684 C8.98657485,175.760578 8.97169722,175.988654 8.95951534,176.196912 L8.95951534,176.196912 L1.80266296,178.95341 L1.48564195,181.283947 L9.22390441,178.170559 C9.49592883,179.25714 9.99685979,180.14476 10.7266973,180.833417 C11.4565347,181.522075 12.3525622,181.93865 13.4147796,182.083143 C14.4452891,182.223322 15.3755453,182.091506 16.2055483,181.687696 C17.0355513,181.283885 17.7208137,180.638359 18.2613355,179.751118 C18.8018573,178.863878 19.1594607,177.778171 19.3341458,176.493997 L19.3341458,176.493997 L19.958483,171.904267 L3.07398189,169.607482 L2.8022496,171.605085 Z M10.8561362,175.074309 C10.9035815,174.725521 10.9717332,174.343219 11.0605912,173.927401 C11.1494493,173.511584 11.2503872,173.125667 11.3634051,172.769652 L11.3634051,172.769652 L17.9031767,173.659252 L17.5505717,176.251379 C17.3694168,177.583114 16.9308968,178.581115 16.2350117,179.245379 C15.5391265,179.909644 14.6600752,180.169531 13.5978578,180.025038 C12.5356404,179.880545 11.7640696,179.379979 11.2831456,178.523339 C10.8022216,177.666699 10.6598851,176.517023 10.8561362,175.074309 Z M0.172896941,207.349656 L2.02088455,207.356422 L2.05014629,199.364476 C2.48026877,199.878054 2.91043518,200.379633 3.34064554,200.869211 C3.77085589,201.35879 4.17718356,201.81628 4.55962857,202.241683 C4.94207357,202.667087 5.27673857,203.032314 5.56362358,203.337367 C6.82286997,204.637986 7.97539123,205.590212 9.02118738,206.194045 C10.0669835,206.797878 11.1018782,207.10167 12.1258713,207.105419 C12.8298666,207.107997 13.4863455,206.978399 14.095308,206.716627 C14.7042705,206.454855 15.2335998,206.092791 15.6832956,205.630434 C16.1329915,205.168078 16.482981,204.625355 16.733264,204.002268 C16.983547,203.37918 17.1100359,202.699638 17.1127739,201.963643 C17.1159527,201.083649 16.938927,200.270996 16.5816535,199.525682 C16.2243799,198.780369 15.7227119,198.142528 15.0766495,197.612159 C14.4305871,197.08179 13.6679396,196.710995 12.788707,196.499775 L12.788707,196.499775 L12.3260317,198.322093 C13.2690295,198.597547 14.0033843,199.048239 14.529096,199.674168 C15.0548078,200.300097 15.316082,201.045059 15.3129185,201.909053 C15.3105752,202.549049 15.1685405,203.104532 14.8868142,203.575504 C14.6050879,204.046476 14.2117285,204.417038 13.7067359,204.687191 C13.2017434,204.957344 12.6132494,205.09119 11.9412539,205.088729 C11.4292574,205.086855 10.9296122,204.989025 10.4423185,204.795239 C9.95502472,204.601454 9.42418528,204.283508 8.84980015,203.841402 C8.27541501,203.399296 7.6056017,202.80084 6.8403602,202.046033 C6.10700133,201.323343 5.31406758,200.484434 4.46155895,199.529306 C3.60905032,198.574178 2.7367908,197.550978 1.84478038,196.459705 L1.84478038,196.459705 L0.212791321,196.453729 L0.172896941,207.349656 Z M0.383935972,219.946021 C0.485869138,221.189851 0.920917807,222.237819 1.68908198,223.089925 C2.45724615,223.94203 3.50741911,224.562327 4.83960086,224.950817 C6.1717826,225.339306 7.72290652,225.461021 9.49297261,225.315962 C11.2630387,225.170903 12.7739774,224.802262 14.0257888,224.210039 C15.2776002,223.617816 16.213425,222.842791 16.8332634,221.884964 C17.4531017,220.927137 17.7120543,219.826309 17.6101211,218.582478 C17.508188,217.338648 17.0731393,216.29068 16.3049751,215.438575 C15.536811,214.586469 14.486638,213.966172 13.1544563,213.577683 C11.8222745,213.189194 10.2711506,213.067478 8.5010845,213.212537 C6.73101841,213.357596 5.22007968,213.726237 3.96826831,214.31846 C2.71645694,214.910683 1.78063209,215.685708 1.16079374,216.643535 C0.540955395,217.601362 0.282002806,218.702191 0.383935972,219.946021 Z M2.17988213,219.822922 C2.10931301,218.961809 2.31662986,218.210365 2.80183266,217.568591 C3.28703547,216.926816 4.02685784,216.404645 5.02129978,216.002077 C6.01574171,215.599508 7.23055704,215.339417 8.66574576,215.221801 C10.116881,215.102879 11.3618197,215.161392 12.4005618,215.397339 C13.4393039,215.633285 14.2502826,216.028367 14.8334981,216.582583 C15.4167136,217.136799 15.7436059,217.844464 15.814175,218.705577 C15.8847441,219.566691 15.6774273,220.318134 15.1922244,220.959909 C14.7070216,221.601683 13.9711859,222.123528 12.9847172,222.525443 C11.9982486,222.927357 10.7794466,223.187776 9.32831135,223.306698 C7.89312262,223.424313 6.65217059,223.365495 5.60545523,223.130181 C4.55873987,222.894887 3.74377446,222.500132 3.160559,221.945916 C2.57734353,221.3917 2.25045124,220.684035 2.17988213,219.822922 Z M2.77663967,237.815612 L19.1259633,235.182512 L18.8702855,233.594969 L15.2889984,229.018181 L13.8510809,230.051967 L16.656829,233.586813 L2.46372052,235.872649 L2.77663967,237.815612 Z M4.78221537,249.842944 C5.04604219,250.931427 5.49823774,251.863126 6.13880202,252.638041 C6.7793663,253.412956 7.56188701,254.00941 8.48636415,254.427403 C9.41084129,254.845396 10.4491205,255.087636 11.6012019,255.154123 C12.7532833,255.22061 13.9746389,255.097442 15.2652689,254.784618 C16.4936998,254.486871 17.5667572,254.074498 18.4844412,253.547499 C19.4021252,253.020499 20.1467645,252.407852 20.7183592,251.709558 C21.2899538,251.011263 21.6737779,250.251469 21.8698312,249.430175 C22.0658845,248.608882 22.056496,247.755067 21.8416656,246.868731 C21.6494489,246.075693 21.3304757,245.371 20.8847461,244.754652 C20.4390164,244.138304 19.9090552,243.63292 19.2948623,243.2385 C18.6806694,242.84408 18.0131074,242.58607 17.2921764,242.46447 C16.5712454,242.342871 15.8375857,242.372526 15.0911973,242.553436 C14.3603586,242.730577 13.7120928,243.027641 13.1463998,243.44463 C12.5807069,243.861618 12.123975,244.371556 11.7762044,244.974442 C11.4284337,245.577328 11.2015234,246.237352 11.0954736,246.954514 C10.9894238,247.671676 11.0306228,248.419001 11.2190705,249.196489 C11.4678215,250.222773 11.9294451,251.057523 12.6039413,251.700739 C13.2784374,252.343955 14.0925372,252.73108 15.0462407,252.862113 L15.0462407,252.862113 L14.8129943,252.918647 C13.3668668,253.26916 12.06906,253.365584 10.9195741,253.20792 C9.77008809,253.050256 8.81545368,252.643689 8.05567082,251.988218 C7.29588796,251.332747 6.78219865,250.452995 6.51460288,249.348962 C6.2470071,248.244929 6.31655221,247.20735 6.72323819,246.236223 L6.72323819,246.236223 L5.00855574,245.886286 C4.51845625,247.12458 4.44300946,248.443465 4.78221537,249.842944 Z M12.9846677,248.941407 C12.8150648,248.241668 12.816859,247.586818 12.9900503,246.976857 C13.1632417,246.366896 13.4726063,245.843287 13.9181441,245.406032 C14.3636819,244.968777 14.9207706,244.669117 15.5894102,244.507052 C16.1025522,244.382676 16.5994336,244.361022 17.0800542,244.442088 C17.5606749,244.523155 18.0038318,244.687386 18.4095247,244.934783 C18.8152177,245.18218 19.1641281,245.500961 19.4562559,245.891127 C19.7483837,246.281293 19.9547509,246.725172 20.0753575,247.222764 C20.199733,247.735906 20.2223298,248.236675 20.1431479,248.725071 C20.063966,249.213466 19.8967892,249.661453 19.6416174,250.06903 C19.3864456,250.476608 19.0598894,250.827402 18.6619488,251.121415 C18.2640081,251.415427 17.8162417,251.622736 17.3186494,251.743343 C16.6655596,251.901639 16.0399244,251.884532 15.4417439,251.692022 C14.8435635,251.499512 14.3259641,251.163996 13.888946,250.685474 C13.4519278,250.206952 13.1505017,249.625597 12.9846677,248.941407 Z M13.8707991,278.472342 L28.0292558,272.964623 L29.917368,277.818312 L31.6396447,277.148337 L27.1325382,265.562112 L25.4102614,266.232087 L27.2983736,271.085776 L13.139917,276.593495 L13.8707991,278.472342 Z M21.1615438,295.964071 C21.6047485,296.833637 22.1471872,297.580792 22.78886,298.205535 C23.4305329,298.830278 24.1463551,299.327436 24.9363268,299.69701 C25.7262985,300.066584 26.5688988,300.301583 27.4641277,300.402008 C28.3593566,300.502434 29.2750019,300.466744 30.2110635,300.29494 C31.1471252,300.123136 32.0784496,299.801101 33.0050366,299.328833 C34.1739619,298.73305 35.1540276,298.004556 35.9452337,297.143352 C36.7364399,296.282148 37.32306,295.336655 37.7050941,294.306873 C38.0871283,293.277092 38.2452862,292.21326 38.1795678,291.115378 C38.1138494,290.017496 37.8085283,288.933985 37.2636046,287.864846 C36.8203999,286.99528 36.2779611,286.248125 35.6362883,285.623382 C34.9946155,284.998639 34.2787932,284.501481 33.4888215,284.131907 C32.6988499,283.762333 31.8562496,283.527334 30.9610207,283.426909 C30.0657918,283.326483 29.1501465,283.362173 28.2140848,283.533977 C27.2780232,283.705781 26.3466988,284.027816 25.4201117,284.500083 C24.2511865,285.095867 23.2711208,285.824361 22.4799147,286.685565 C21.6887085,287.546769 21.1020884,288.492262 20.7200542,289.522044 C20.3380201,290.551825 20.1798622,291.615657 20.2455806,292.713539 C20.3112989,293.811421 20.61662,294.894932 21.1615438,295.964071 Z M22.8298147,295.167653 C22.4156726,294.355108 22.1928495,293.530352 22.1613451,292.693387 C22.1298408,291.856421 22.2720435,291.043159 22.5879532,290.253602 C22.9038629,289.464044 23.3829952,288.730472 24.0253502,288.052885 C24.6677053,287.375298 25.4521763,286.800371 26.3787634,286.328104 C27.3053505,285.855837 28.2279379,285.560702 29.1465258,285.4427 C30.0651136,285.324698 30.9366601,285.36985 31.7611653,285.578156 C32.5856705,285.786461 33.3272893,286.149253 33.9860218,286.66653 C34.6447543,287.183807 35.1811916,287.848718 35.5953336,288.661263 C36.0094757,289.473809 36.2322989,290.298565 36.2638032,291.13553 C36.2953075,291.972496 36.1531048,292.785758 35.8371952,293.575315 C35.5212855,294.364873 35.045717,295.096628 34.4104895,295.770582 C33.7752621,296.444537 32.9943548,297.017647 32.0677677,297.489914 C31.1411806,297.962182 30.2150294,298.259133 29.289314,298.380767 C28.3635986,298.502402 27.4884883,298.459067 26.6639831,298.250761 C25.8394779,298.042456 25.097859,297.679664 24.4391266,297.162387 C23.7803941,296.64511 23.2439568,295.980199 22.8298147,295.167653 Z M35.6347236,320.642249 C36.2329055,321.493001 36.9528209,322.106575 37.7944698,322.482973 C38.6361187,322.859371 39.5345701,322.975788 40.489824,322.832226 C41.4450778,322.688664 42.3938903,322.285583 43.3362614,321.622981 L43.3362614,321.622981 L52.8777687,314.914141 L51.7182161,313.264992 L42.1570761,319.987636 C41.5157402,320.438573 40.8802843,320.724013 40.2507083,320.843955 C39.6211323,320.963897 39.0406896,320.917268 38.5093802,320.704068 C37.9780707,320.490868 37.5237586,320.115954 37.1464439,319.579326 C36.2905836,318.362097 36.3689131,316.957438 37.3814323,315.365351 L37.3814323,315.365351 L35.805911,314.126034 C35.2948457,314.817881 34.950965,315.53887 34.774269,316.289003 C34.597573,317.039135 34.5794725,317.785331 34.7199673,318.52759 C34.8604621,319.26985 35.1653809,319.974736 35.6347236,320.642249 Z M43.7222084,331.103121 L48.6458874,329.413356 L53.7065488,335.380322 L51.2355829,339.962052 L52.632698,341.609374 L61.188516,325.352865 L59.8069244,323.723847 L42.3716638,329.51071 L43.7222084,331.103121 Z M54.6346956,333.617602 L50.5209678,328.767154 L58.7722024,325.954586 L54.6346956,333.617602 Z M58.3450692,347.741176 L67.8087819,337.896153 L65.19679,354.32752 L66.4771621,355.558302 L78.2860127,343.273651 L76.867222,341.909812 L67.4035093,351.754835 L70.0155012,335.323467 L68.7351292,334.092686 L56.9262786,346.377336 L58.3450692,347.741176 Z M76.9698657,365.150697 C77.7752351,365.783118 78.6088576,366.224119 79.4707334,366.473699 C80.3326091,366.723279 81.1890398,366.785492 82.0400254,366.660338 C82.891011,366.535185 83.7091454,366.231659 84.4944284,365.74976 C85.2797115,365.267861 86.0033858,364.605351 86.6654514,363.76223 L86.6654514,363.76223 L93.1131799,355.551237 L91.5276089,354.306159 L85.1243476,362.460524 C84.4524004,363.316229 83.720851,363.936954 82.9296995,364.322699 C82.1385479,364.708444 81.3327252,364.853804 80.5122312,364.75878 C79.6917372,364.663756 78.8976813,364.314856 78.1300636,363.712079 C77.3624459,363.109303 76.8351926,362.420638 76.5483038,361.646083 C76.2614149,360.871529 76.2115327,360.054221 76.3986572,359.194161 C76.5857817,358.3341 77.0153175,357.476217 77.6872647,356.620512 L77.6872647,356.620512 L84.0905261,348.466147 L82.5049552,347.221068 L76.0572267,355.432061 C75.3951611,356.275182 74.9175483,357.135999 74.6243884,358.014512 C74.3312284,358.893025 74.2247598,359.760477 74.3049825,360.616867 C74.3852052,361.473258 74.6480658,362.284888 75.0935641,363.051759 C75.5390625,363.81863 76.1644963,364.518276 76.9698657,365.150697 Z M88.8241225,373.513464 L93.0226721,370.436111 L99.6286726,374.628454 L98.6318042,379.737678 L100.455547,380.895073 L103.79066,362.829827 L101.987181,361.685292 L87.0611714,372.394649 L88.8241225,373.513464 Z M99.9907104,372.669482 L94.620802,369.261597 L101.66255,364.122803 L99.9907104,372.669482 Z M107.751792,385.092693 L110.857279,378.998306 C111.198874,379.244201 111.537042,379.470392 111.871783,379.676879 C112.206523,379.883366 112.516452,380.059253 112.801569,380.204539 C113.029663,380.320767 113.257826,380.428052 113.486056,380.526393 C113.714286,380.624734 113.924697,380.713994 114.117288,380.794174 L114.117288,380.794174 L114.35939,388.459694 L116.455004,389.527546 L116.067714,381.195446 C117.183218,381.296972 118.186379,381.116784 119.077198,380.654881 C119.968016,380.192978 120.65678,379.484455 121.143487,378.529311 C121.615667,377.602679 121.798005,376.680994 121.690504,375.764254 C121.583002,374.847515 121.199575,373.987706 120.540222,373.184827 C119.880869,372.381949 118.973829,371.686306 117.819103,371.097898 L117.819103,371.097898 L113.692027,368.994884 L105.955551,384.177391 L107.751792,385.092693 Z M113.682954,378.633442 C113.369325,378.473627 113.030884,378.283212 112.667632,378.062197 C112.30438,377.841181 111.97334,377.618622 111.674512,377.39452 L111.674512,377.39452 L114.671034,371.513971 L117.00187,372.701684 C118.199364,373.311884 118.996918,374.054994 119.394533,374.931011 C119.792148,375.807028 119.747602,376.722609 119.260894,377.677752 C118.774186,378.632896 118.047173,379.196226 117.079857,379.367743 C116.11254,379.53926 114.980239,379.294493 113.682954,378.633442 Z M127.836935,394.479137 L130.39405,388.109235 L139.753115,380.900984 L137.659511,380.060533 L130.160395,386.049954 L128.884191,376.537794 L126.746041,375.679461 L128.52317,387.358194 L125.966054,393.728096 L127.836935,394.479137 Z M158.09659,404.175543 L158.547992,402.383521 L150.798081,400.431354 C151.400095,400.137504 151.990471,399.840723 152.569212,399.54101 C153.147952,399.241297 153.689799,398.957041 154.194754,398.688241 C154.699708,398.419442 155.134755,398.182532 155.499894,397.977513 C157.065388,397.068369 158.267042,396.178949 159.104857,395.309254 C159.942672,394.439559 160.486643,393.50822 160.736771,392.515239 C160.908733,391.832564 160.94097,391.164192 160.83348,390.510123 C160.72599,389.856055 160.501988,389.255136 160.161474,388.707368 C159.82096,388.159599 159.378443,387.68926 158.833923,387.296351 C158.289403,386.903442 157.66029,386.617098 156.946584,386.437319 C156.093241,386.222365 155.26187,386.19857 154.452471,386.365931 C153.643073,386.533293 152.903228,386.866674 152.232939,387.366073 C151.562649,387.865472 151.019177,388.516439 150.602525,389.318976 L150.602525,389.318976 L152.259888,390.206702 C152.754235,389.357738 153.368444,388.753463 154.102514,388.393878 C154.836584,388.034294 155.622533,387.960024 156.460361,388.171069 C157.080974,388.327399 157.585935,388.59897 157.975243,388.985781 C158.364552,389.372593 158.629531,389.843585 158.770182,390.398758 C158.910833,390.953931 158.899086,391.55734 158.734939,392.208984 C158.609876,392.705475 158.394651,393.16688 158.089266,393.593198 C157.78388,394.019517 157.347503,394.458214 156.780135,394.90929 C156.212766,395.360365 155.470674,395.866427 154.553858,396.427476 C153.675888,396.965311 152.670777,397.532993 151.538523,398.130523 C150.40627,398.728053 149.203191,399.328367 147.929287,399.931465 L147.929287,399.931465 L147.530646,401.51403 L158.09659,404.175543 Z M170.370258,406.985349 C171.602498,407.183059 172.72399,407.010549 173.734734,406.467819 C174.745479,405.925089 175.598376,405.053196 176.293427,403.85214 C176.988478,402.651083 177.476682,401.173769 177.758039,399.420197 C178.039396,397.666625 178.041813,396.111368 177.76529,394.754425 C177.488767,393.397481 176.959345,392.303798 176.177022,391.473374 C175.3947,390.64295 174.387419,390.128883 173.155179,389.931173 C171.92294,389.733462 170.801448,389.905972 169.790703,390.448702 C168.779959,390.991432 167.927061,391.863325 167.232011,393.064382 C166.53696,394.265438 166.048756,395.742752 165.767399,397.496324 C165.486042,399.249896 165.483625,400.805153 165.760147,402.162097 C166.03667,403.51904 166.566093,404.612724 167.348415,405.443147 C168.130738,406.273571 169.138019,406.787638 170.370258,406.985349 Z M170.679114,405.211882 C169.826025,405.075006 169.145726,404.694425 168.638217,404.070141 C168.130709,403.445857 167.800087,402.602833 167.646351,401.54107 C167.492616,400.479306 167.529813,399.237517 167.75794,397.815702 C167.988602,396.378089 168.342391,395.183045 168.819306,394.230571 C169.296221,393.278096 169.873347,392.58477 170.550684,392.150592 C171.228021,391.716414 171.993234,391.567763 172.846323,391.704639 C173.699412,391.841516 174.379711,392.222096 174.88722,392.84638 C175.394729,393.470664 175.725985,394.309739 175.880987,395.363603 C176.03599,396.417467 175.99816,397.663206 175.767498,399.100819 C175.53937,400.522634 175.186215,401.713728 174.708033,402.674102 C174.22985,403.634475 173.65209,404.331751 172.974753,404.765929 C172.297416,405.200107 171.532203,405.348758 170.679114,405.211882 Z M193.41186,409.251337 L193.54515,407.40815 L185.573965,406.831715 C186.11579,406.437769 186.645647,406.042957 187.163534,405.64728 C187.681422,405.251603 188.165662,404.877556 188.616254,404.525137 C189.066846,404.172719 189.454133,403.863848 189.778114,403.598525 C191.161906,402.431293 192.190815,401.34668 192.864841,400.344685 C193.538867,399.342691 193.912809,398.331027 193.986666,397.309694 C194.037443,396.607527 193.953102,395.943715 193.733643,395.318257 C193.514183,394.6928 193.189214,394.139921 192.758735,393.659621 C192.328256,393.179321 191.810773,392.79299 191.206286,392.500629 C190.601799,392.208268 189.932513,392.035545 189.19843,391.98246 C188.320722,391.918989 187.497854,392.039953 186.729826,392.345354 C185.961799,392.650754 185.291103,393.107569 184.717741,393.715798 C184.144378,394.324028 183.722232,395.059495 183.451302,395.922201 L183.451302,395.922201 L185.237662,396.508572 C185.577041,395.586649 186.076959,394.884879 186.737417,394.403261 C187.397874,393.921643 188.158978,393.711993 189.020727,393.77431 C189.659061,393.820471 190.203515,394.000209 190.65409,394.313523 C191.104665,394.626838 191.447423,395.044648 191.682363,395.566953 C191.917302,396.089259 192.010538,396.685537 191.962069,397.355787 C191.92514,397.866453 191.793327,398.358227 191.566629,398.831108 C191.339931,399.303988 190.986383,399.811811 190.505984,400.354575 C190.025585,400.897339 189.382669,401.524601 188.577234,402.236362 C187.806024,402.918514 186.914789,403.652143 185.903528,404.437249 C184.892267,405.222355 183.811741,406.022504 182.661949,406.837697 L182.661949,406.837697 L182.544239,408.465447 L193.41186,409.251337 Z M205.985558,409.997591 C207.233558,409.997591 208.313558,409.649591 209.225558,408.953591 C210.137558,408.257591 210.841558,407.261591 211.337558,405.965591 C211.833558,404.669591 212.081558,403.133591 212.081558,401.357591 C212.081558,399.581591 211.837558,398.045591 211.349558,396.749591 C210.861558,395.453591 210.165558,394.457591 209.261558,393.761591 C208.357558,393.065591 207.281558,392.717591 206.033558,392.717591 C204.785558,392.717591 203.705558,393.065591 202.793558,393.761591 C201.881558,394.457591 201.177558,395.453591 200.681558,396.749591 C200.185558,398.045591 199.937558,399.581591 199.937558,401.357591 C199.937558,403.133591 200.181558,404.669591 200.669558,405.965591 C201.157558,407.261591 201.853558,408.257591 202.757558,408.953591 C203.661558,409.649591 204.737558,409.997591 205.985558,409.997591 Z M206.009558,408.197591 C205.145558,408.197591 204.413558,407.929591 203.813558,407.393591 C203.213558,406.857591 202.753558,406.077591 202.433558,405.053591 C202.113558,404.029591 201.953558,402.797591 201.953558,401.357591 C201.953558,399.901591 202.113558,398.665591 202.433558,397.649591 C202.753558,396.633591 203.213558,395.857591 203.813558,395.321591 C204.413558,394.785591 205.145558,394.517591 206.009558,394.517591 C206.873558,394.517591 207.605558,394.785591 208.205558,395.321591 C208.805558,395.857591 209.265558,396.633591 209.585558,397.649591 C209.905558,398.665591 210.065558,399.901591 210.065558,401.357591 C210.065558,402.797591 209.905558,404.029591 209.585558,405.053591 C209.265558,406.077591 208.805558,406.857591 208.205558,407.393591 C207.605558,407.929591 206.873558,408.197591 206.009558,408.197591 Z" id="INITIATEDINTERACTIONSTUDYWITHFRAMERXFROMOCTOBER2019TOJANUARY2020"></path>
            </g>
        </g>
    </g>
</svg>