<?xml version="1.0" encoding="UTF-8"?>
<svg width="315px" height="80px" viewBox="0 0 315 80" version="1.1" xmlns="http://www.w3.org/2000/svg" xmlns:xlink="http://www.w3.org/1999/xlink">
    <!-- Generator: Sketch 62 (91390) - https://sketch.com -->
    <title>shape_a</title>
    <desc>Created with Sketch.</desc>
    <g id="01" stroke="none" stroke-width="1" fill="none" fill-rule="evenodd">
        <g id="01_sing_in" transform="translate(-30.000000, -793.000000)">
            <g id="shape_a" transform="translate(30.000000, 793.000000)">
                <rect id="Rectangle" fill="#FF912A" x="0" y="0" width="315" height="80" rx="40"></rect>
                <path d="M88.8632581,57.42 C92.0132581,57.42 95.4572581,56.328 97.6412581,54.606 C97.8092581,54.48 98.0192581,54.564 98.0192581,54.9 L98.0192581,57 L100.161258,57 L100.161258,44.736 C100.161258,43.644 100.875258,42.93 101.967258,42.93 L103.689258,42.93 L103.689258,42.3 L91.0472581,42.3 L91.0472581,42.93 L96.2132581,42.93 C97.3052581,42.93 98.0192581,43.644 98.0192581,44.736 L98.0192581,51.498 C96.1712581,54.522 93.2312581,56.538 90.1232581,56.79 C83.6972581,57.378 78.9512581,51.96 78.1952581,43.266 C77.4392581,34.572 81.2192581,28.356 87.6032581,27.81 C92.3912581,27.39 96.6752581,30.96 98.7332581,40.2 L102.009258,36.042 C99.9512581,30.708 94.7012581,27.18 88.8632581,27.18 C80.2952581,27.18 74.5832581,33.228 74.5832581,42.3 C74.5832581,51.372 80.2952581,57.42 88.8632581,57.42 Z M109.395839,57 L109.395839,56.37 L108.429839,56.37 C107.127839,56.37 106.749839,55.95 107.085839,54.984 L109.731839,47.508 L121.323839,47.508 L123.885839,54.984 C124.221839,55.992 123.885839,56.37 122.541839,56.37 L121.239839,56.37 L121.239839,57 L130.689839,57 L130.689839,56.37 L129.471839,56.37 C129.093839,56.37 127.581839,56.286 127.119839,54.984 L117.123839,25.92 L114.309839,27.138 L115.191839,29.742 L106.329839,54.984 C105.993839,55.992 105.111839,56.37 104.397839,56.37 L103.431839,56.37 L103.431839,57 L109.395839,57 Z M121.113839,46.878 L109.941839,46.878 L115.569839,30.834 L121.113839,46.878 Z M148.870419,57 L148.870419,56.37 L146.728419,56.37 C145.804419,56.37 145.342419,55.95 145.342419,54.984 L145.342419,29.616 C145.342419,28.65 145.804419,28.23 146.728419,28.23 L152.230419,28.23 C155.464419,28.23 157.606419,30.372 157.606419,33.564 L158.110419,33.564 L157.690419,28.23 L157.648419,27.6 L130.054419,27.6 L130.012419,28.23 L129.592419,33.564 L130.096419,33.564 C130.096419,30.372 132.238419,28.23 135.472419,28.23 L140.974419,28.23 C141.898419,28.23 142.360419,28.65 142.360419,29.616 L142.360419,54.984 C142.360419,55.95 141.898419,56.37 140.974419,56.37 L138.832419,56.37 L138.832419,57 L148.870419,57 Z M170.831,57 L170.831,56.37 L168.689,56.37 C167.765,56.37 167.303,55.95 167.303,54.984 L167.303,42.846 L181.541,42.846 L181.541,54.984 C181.541,55.95 181.079,56.37 180.155,56.37 L178.013,56.37 L178.013,57 L188.051,57 L188.051,56.37 L185.909,56.37 C184.985,56.37 184.523,55.95 184.523,54.984 L184.523,29.616 C184.523,28.65 184.985,28.23 185.909,28.23 L188.051,28.23 L188.051,27.6 L178.013,27.6 L178.013,28.23 L180.155,28.23 C181.079,28.23 181.541,28.65 181.541,29.616 L181.541,42.216 L167.303,42.216 L167.303,29.616 C167.303,28.65 167.765,28.23 168.689,28.23 L170.831,28.23 L170.831,27.6 L160.793,27.6 L160.793,28.23 L162.935,28.23 C163.859,28.23 164.321,28.65 164.321,29.616 L164.321,54.984 C164.321,55.95 163.859,56.37 162.935,56.37 L160.793,56.37 L160.793,57 L170.831,57 Z M211.649581,57 L211.691581,56.37 L212.111581,51.036 L211.607581,51.036 C211.607581,54.228 209.297581,56.37 205.811581,56.37 L198.629581,56.37 C197.705581,56.37 197.243581,55.95 197.243581,54.984 L197.243581,42.846 L200.435581,42.846 C202.661581,42.846 204.131581,44.652 204.131581,47.34 L204.635581,47.34 L204.635581,37.722 L204.131581,37.722 C204.131581,40.41 202.661581,42.216 200.435581,42.216 L197.243581,42.216 L197.243581,29.616 C197.243581,28.65 197.705581,28.23 198.629581,28.23 L205.811581,28.23 C209.297581,28.23 211.607581,30.372 211.607581,33.564 L212.111581,33.564 L211.691581,28.23 L211.649581,27.6 L190.733581,27.6 L190.733581,28.23 L192.875581,28.23 C193.799581,28.23 194.261581,28.65 194.261581,29.616 L194.261581,54.984 C194.261581,55.95 193.799581,56.37 192.875581,56.37 L190.733581,56.37 L190.733581,57 L211.649581,57 Z M241.674161,55.362 L241.212161,55.152 C239.784161,57.546 235.878161,57.336 235.038161,48.516 C234.744161,45.534 232.224161,43.896 229.452161,43.434 C234.030161,42.636 236.802161,39.99 236.802161,35.58 C236.802161,30.036 232.308161,27.6 225.462161,27.6 L214.794161,27.6 L214.794161,28.23 L216.936161,28.23 C217.860161,28.23 218.322161,28.65 218.322161,29.616 L218.322161,54.984 C218.322161,55.95 217.860161,56.37 216.936161,56.37 L214.794161,56.37 L214.794161,57 L224.832161,57 L224.832161,56.37 L222.690161,56.37 C221.766161,56.37 221.304161,55.95 221.304161,54.984 L221.304161,43.686 L227.184161,43.686 C229.242161,43.686 231.594161,45.156 231.846161,48.516 C232.602161,58.596 239.616161,58.764 241.674161,55.362 Z M226.932161,43.056 L221.304161,43.056 L221.304161,29.616 C221.304161,28.65 221.766161,28.23 222.690161,28.23 L226.932161,28.23 C230.586161,28.23 233.610161,30.162 233.610161,35.622 C233.610161,41.04 230.250161,43.056 226.932161,43.056 Z" id="GATHER" fill="#FFFFFF" fill-rule="nonzero"></path>
            </g>
        </g>
    </g>
</svg>