<?xml version="1.0" encoding="UTF-8"?>
<svg width="200px" height="200px" viewBox="0 0 200 200" version="1.1" xmlns="http://www.w3.org/2000/svg" xmlns:xlink="http://www.w3.org/1999/xlink">
    <!-- Generator: Sketch 62 (91390) - https://sketch.com -->
    <title>shape_b</title>
    <desc>Created with Sketch.</desc>
    <g id="01" stroke="none" stroke-width="1" fill="none" fill-rule="evenodd">
        <g id="01_sing_in" transform="translate(-50.000000, -987.000000)">
            <g id="shape_b" transform="translate(50.000000, 987.000000)">
                <rect id="Rectangle" fill="#00A6A1" x="0" y="0" width="200" height="200" rx="100"></rect>
                <path d="M55.0918387,117 C63.4078387,117 68.9518387,111.12 68.9518387,102.3 C68.9518387,93.48 63.4078387,87.6 55.0918387,87.6 L42.4918387,87.6 L42.4918387,88.23 L44.6338387,88.23 C45.5578387,88.23 46.0198387,88.65 46.0198387,89.616 L46.0198387,114.984 C46.0198387,115.95 45.5578387,116.37 44.6338387,116.37 L42.4918387,116.37 L42.4918387,117 L55.0918387,117 Z M56.3098387,116.37 L50.3878387,116.37 C49.4638387,116.37 49.0018387,115.95 49.0018387,114.984 L49.0018387,89.616 C49.0018387,88.65 49.4638387,88.23 50.3878387,88.23 L56.3098387,88.23 C61.3918387,88.23 65.3398387,93.774 65.3398387,102.3 C65.3398387,110.826 61.3918387,116.37 56.3098387,116.37 Z M97.6744194,115.362 L97.2124194,115.152 C95.7844194,117.546 91.8784194,117.336 91.0384194,108.516 C90.7444194,105.534 88.2244194,103.896 85.4524194,103.434 C90.0304194,102.636 92.8024194,99.99 92.8024194,95.58 C92.8024194,90.036 88.3084194,87.6 81.4624194,87.6 L70.7944194,87.6 L70.7944194,88.23 L72.9364194,88.23 C73.8604194,88.23 74.3224194,88.65 74.3224194,89.616 L74.3224194,114.984 C74.3224194,115.95 73.8604194,116.37 72.9364194,116.37 L70.7944194,116.37 L70.7944194,117 L80.8324194,117 L80.8324194,116.37 L78.6904194,116.37 C77.7664194,116.37 77.3044194,115.95 77.3044194,114.984 L77.3044194,103.686 L83.1844194,103.686 C85.2424194,103.686 87.5944194,105.156 87.8464194,108.516 C88.6024194,118.596 95.6164194,118.764 97.6744194,115.362 Z M82.9324194,103.056 L77.3044194,103.056 L77.3044194,89.616 C77.3044194,88.65 77.7664194,88.23 78.6904194,88.23 L82.9324194,88.23 C86.5864194,88.23 89.6104194,90.162 89.6104194,95.622 C89.6104194,101.04 86.2504194,103.056 82.9324194,103.056 Z M105.901,117 L105.901,116.37 L104.935,116.37 C103.633,116.37 103.255,115.95 103.591,114.984 L106.237,107.508 L117.829,107.508 L120.391,114.984 C120.727,115.992 120.391,116.37 119.047,116.37 L117.745,116.37 L117.745,117 L127.195,117 L127.195,116.37 L125.977,116.37 C125.599,116.37 124.087,116.286 123.625,114.984 L113.629,85.92 L110.815,87.138 L111.697,89.742 L102.835,114.984 C102.499,115.992 101.617,116.37 100.903,116.37 L99.937,116.37 L99.937,117 L105.901,117 Z M117.619,106.878 L106.447,106.878 L112.075,90.834 L117.619,106.878 Z M134.371581,117 L140.125581,92.22 L147.895581,117 L148.609581,117 L155.497581,89.616 C155.833581,88.734 156.463581,88.23 157.387581,88.23 L158.185581,88.23 L158.185581,87.6 L152.389581,87.6 L152.389581,88.23 L153.397581,88.23 C154.573581,88.23 154.951581,88.608 154.867581,89.238 L154.783581,89.616 L149.323581,111.288 L142.057581,87.6 L138.697581,87.6 L139.747581,90.876 L135.001581,111.078 L128.365581,89.616 L128.323581,89.448 C128.113581,88.608 128.869581,88.23 129.751581,88.23 L131.053581,88.23 L131.053581,87.6 L121.477581,87.6 L121.477581,88.23 L122.695581,88.23 C123.199581,88.23 124.585581,88.356 125.005581,89.616 L133.615581,117 L134.371581,117 Z" id="DRAW" fill="#FFFFFF" fill-rule="nonzero"></path>
            </g>
        </g>
    </g>
</svg>