<?xml version="1.0" encoding="UTF-8"?>
<svg width="315px" height="80px" viewBox="0 0 315 80" version="1.1" xmlns="http://www.w3.org/2000/svg" xmlns:xlink="http://www.w3.org/1999/xlink">
    <!-- Generator: Sketch 62 (91390) - https://sketch.com -->
    <title>shape_c</title>
    <desc>Created with Sketch.</desc>
    <g id="01" stroke="none" stroke-width="1" fill="none" fill-rule="evenodd">
        <g id="01_sing_in" transform="translate(-30.000000, -907.000000)">
            <g id="shape_c" transform="translate(30.000000, 907.000000)">
                <rect id="Rectangle" fill="#FF5757" x="0" y="0" width="315" height="80"></rect>
                <path d="M92.6432581,57.42 C97.5992581,57.42 101.925258,55.068 104.361258,51.414 L103.017258,48.936 C101.547258,53.178 98.2292581,56.412 93.9032581,56.79 C87.2672581,57.378 82.7312581,52.002 81.9752581,43.266 C81.2192581,34.53 84.7052581,28.398 91.3832581,27.81 C97.3052581,27.306 100.665258,32.43 102.387258,39.57 L105.789258,36.042 C103.773258,30.792 98.7752581,27.18 92.6432581,27.18 C84.2852581,27.18 78.3632581,33.942 78.3632581,42.3 C78.3632581,50.658 84.2852581,57.42 92.6432581,57.42 Z M134.511839,55.362 L134.049839,55.152 C132.621839,57.546 128.715839,57.336 127.875839,48.516 C127.581839,45.534 125.061839,43.896 122.289839,43.434 C126.867839,42.636 129.639839,39.99 129.639839,35.58 C129.639839,30.036 125.145839,27.6 118.299839,27.6 L107.631839,27.6 L107.631839,28.23 L109.773839,28.23 C110.697839,28.23 111.159839,28.65 111.159839,29.616 L111.159839,54.984 C111.159839,55.95 110.697839,56.37 109.773839,56.37 L107.631839,56.37 L107.631839,57 L117.669839,57 L117.669839,56.37 L115.527839,56.37 C114.603839,56.37 114.141839,55.95 114.141839,54.984 L114.141839,43.686 L120.021839,43.686 C122.079839,43.686 124.431839,45.156 124.683839,48.516 C125.439839,58.596 132.453839,58.764 134.511839,55.362 Z M119.769839,43.056 L114.141839,43.056 L114.141839,29.616 C114.141839,28.65 114.603839,28.23 115.527839,28.23 L119.769839,28.23 C123.423839,28.23 126.447839,30.162 126.447839,35.622 C126.447839,41.04 123.087839,43.056 119.769839,43.056 Z M156.430419,57 L156.472419,56.37 L156.892419,51.036 L156.388419,51.036 C156.388419,54.228 154.078419,56.37 150.592419,56.37 L143.410419,56.37 C142.486419,56.37 142.024419,55.95 142.024419,54.984 L142.024419,42.846 L145.216419,42.846 C147.442419,42.846 148.912419,44.652 148.912419,47.34 L149.416419,47.34 L149.416419,37.722 L148.912419,37.722 C148.912419,40.41 147.442419,42.216 145.216419,42.216 L142.024419,42.216 L142.024419,29.616 C142.024419,28.65 142.486419,28.23 143.410419,28.23 L150.592419,28.23 C154.078419,28.23 156.388419,30.372 156.388419,33.564 L156.892419,33.564 L156.472419,28.23 L156.430419,27.6 L135.514419,27.6 L135.514419,28.23 L137.656419,28.23 C138.580419,28.23 139.042419,28.65 139.042419,29.616 L139.042419,54.984 C139.042419,55.95 138.580419,56.37 137.656419,56.37 L135.514419,56.37 L135.514419,57 L156.430419,57 Z M165.119,57 L165.119,56.37 L164.153,56.37 C162.851,56.37 162.473,55.95 162.809,54.984 L165.455,47.508 L177.047,47.508 L179.609,54.984 C179.945,55.992 179.609,56.37 178.265,56.37 L176.963,56.37 L176.963,57 L186.413,57 L186.413,56.37 L185.195,56.37 C184.817,56.37 183.305,56.286 182.843,54.984 L172.847,25.92 L170.033,27.138 L170.915,29.742 L162.053,54.984 C161.717,55.992 160.835,56.37 160.121,56.37 L159.155,56.37 L159.155,57 L165.119,57 Z M176.837,46.878 L165.665,46.878 L171.293,30.834 L176.837,46.878 Z M204.593581,57 L204.593581,56.37 L202.451581,56.37 C201.527581,56.37 201.065581,55.95 201.065581,54.984 L201.065581,29.616 C201.065581,28.65 201.527581,28.23 202.451581,28.23 L207.953581,28.23 C211.187581,28.23 213.329581,30.372 213.329581,33.564 L213.833581,33.564 L213.413581,28.23 L213.371581,27.6 L185.777581,27.6 L185.735581,28.23 L185.315581,33.564 L185.819581,33.564 C185.819581,30.372 187.961581,28.23 191.195581,28.23 L196.697581,28.23 C197.621581,28.23 198.083581,28.65 198.083581,29.616 L198.083581,54.984 C198.083581,55.95 197.621581,56.37 196.697581,56.37 L194.555581,56.37 L194.555581,57 L204.593581,57 Z M237.432161,57 L237.474161,56.37 L237.894161,51.036 L237.390161,51.036 C237.390161,54.228 235.080161,56.37 231.594161,56.37 L224.412161,56.37 C223.488161,56.37 223.026161,55.95 223.026161,54.984 L223.026161,42.846 L226.218161,42.846 C228.444161,42.846 229.914161,44.652 229.914161,47.34 L230.418161,47.34 L230.418161,37.722 L229.914161,37.722 C229.914161,40.41 228.444161,42.216 226.218161,42.216 L223.026161,42.216 L223.026161,29.616 C223.026161,28.65 223.488161,28.23 224.412161,28.23 L231.594161,28.23 C235.080161,28.23 237.390161,30.372 237.390161,33.564 L237.894161,33.564 L237.474161,28.23 L237.432161,27.6 L216.516161,27.6 L216.516161,28.23 L218.658161,28.23 C219.582161,28.23 220.044161,28.65 220.044161,29.616 L220.044161,54.984 C220.044161,55.95 219.582161,56.37 218.658161,56.37 L216.516161,56.37 L216.516161,57 L237.432161,57 Z" id="CREATE" fill="#FFFFFF" fill-rule="nonzero"></path>
            </g>
        </g>
    </g>
</svg>