<?xml version="1.0" encoding="UTF-8"?>
<svg width="222px" height="218px" viewBox="0 0 222 218" version="1.1" xmlns="http://www.w3.org/2000/svg" xmlns:xlink="http://www.w3.org/1999/xlink">
    <!-- Generator: Sketch 62 (91390) - https://sketch.com -->
    <title>shape_d</title>
    <desc>Created with Sketch.</desc>
    <g id="01" stroke="none" stroke-width="1" fill="none" fill-rule="evenodd">
        <g id="01_sing_in" transform="translate(-153.000000, -1087.000000)">
            <g id="shape_d" transform="translate(136.000000, 1087.000000)">
                <polygon id="Star" fill="#4F23FF" points="131 217.912993 17.5506721 196.5 55.7311402 87.5435035 131 0 206.26886 87.5435035 244.449328 196.5"></polygon>
                <path d="M76.7075484,148.378 C81.2855484,147.916 84.7715484,145.018 84.7715484,141.07 C84.7715484,136.744 82.0835484,134.728 78.1775484,132.124 C74.0195484,129.352 70.4075484,127.63 70.4075484,124.102 C70.4075484,120.532 72.8855484,118.39 76.0355484,118.726 C80.1095484,119.146 80.8235484,123.934 81.1175484,126.37 L84.3095484,123.01 C84.3095484,123.01 81.6635484,118.6 76.8335484,118.18 C71.7095484,117.718 68.0975484,120.532 68.0975484,124.816 C68.0975484,128.47 71.0375484,130.696 74.8175484,133.174 C79.7315484,136.366 82.4615484,137.962 82.4615484,141.868 C82.4615484,145.06 79.8995484,147.286 76.8335484,147.79 C73.8935484,148.294 71.0795484,145.816 69.8195484,142.54 L66.4175484,144.976 C69.2315484,147.328 73.3475484,148.714 76.7075484,148.378 Z M97.072129,148 L97.072129,147.37 L94.930129,147.37 C94.006129,147.37 93.544129,146.95 93.544129,145.984 L93.544129,133.846 L107.782129,133.846 L107.782129,145.984 C107.782129,146.95 107.320129,147.37 106.396129,147.37 L104.254129,147.37 L104.254129,148 L114.292129,148 L114.292129,147.37 L112.150129,147.37 C111.226129,147.37 110.764129,146.95 110.764129,145.984 L110.764129,120.616 C110.764129,119.65 111.226129,119.23 112.150129,119.23 L114.292129,119.23 L114.292129,118.6 L104.254129,118.6 L104.254129,119.23 L106.396129,119.23 C107.320129,119.23 107.782129,119.65 107.782129,120.616 L107.782129,133.216 L93.544129,133.216 L93.544129,120.616 C93.544129,119.65 94.006129,119.23 94.930129,119.23 L97.072129,119.23 L97.072129,118.6 L87.034129,118.6 L87.034129,119.23 L89.176129,119.23 C90.100129,119.23 90.562129,119.65 90.562129,120.616 L90.562129,145.984 C90.562129,146.95 90.100129,147.37 89.176129,147.37 L87.034129,147.37 L87.034129,148 L97.072129,148 Z M122.60271,148 L122.60271,147.37 L121.63671,147.37 C120.33471,147.37 119.95671,146.95 120.29271,145.984 L122.93871,138.508 L134.53071,138.508 L137.09271,145.984 C137.42871,146.992 137.09271,147.37 135.74871,147.37 L134.44671,147.37 L134.44671,148 L143.89671,148 L143.89671,147.37 L142.67871,147.37 C142.30071,147.37 140.78871,147.286 140.32671,145.984 L130.33071,116.92 L127.51671,118.138 L128.39871,120.742 L119.53671,145.984 C119.20071,146.992 118.31871,147.37 117.60471,147.37 L116.63871,147.37 L116.63871,148 L122.60271,148 Z M134.32071,137.878 L123.14871,137.878 L128.77671,121.834 L134.32071,137.878 Z M173.03929,146.362 L172.57729,146.152 C171.14929,148.546 167.24329,148.336 166.40329,139.516 C166.10929,136.534 163.58929,134.896 160.81729,134.434 C165.39529,133.636 168.16729,130.99 168.16729,126.58 C168.16729,121.036 163.67329,118.6 156.82729,118.6 L146.15929,118.6 L146.15929,119.23 L148.30129,119.23 C149.22529,119.23 149.68729,119.65 149.68729,120.616 L149.68729,145.984 C149.68729,146.95 149.22529,147.37 148.30129,147.37 L146.15929,147.37 L146.15929,148 L156.19729,148 L156.19729,147.37 L154.05529,147.37 C153.13129,147.37 152.66929,146.95 152.66929,145.984 L152.66929,134.686 L158.54929,134.686 C160.60729,134.686 162.95929,136.156 163.21129,139.516 C163.96729,149.596 170.98129,149.764 173.03929,146.362 Z M158.29729,134.056 L152.66929,134.056 L152.66929,120.616 C152.66929,119.65 153.13129,119.23 154.05529,119.23 L158.29729,119.23 C161.95129,119.23 164.97529,121.162 164.97529,126.622 C164.97529,132.04 161.61529,134.056 158.29729,134.056 Z M194.957871,148 L194.999871,147.37 L195.419871,142.036 L194.915871,142.036 C194.915871,145.228 192.605871,147.37 189.119871,147.37 L181.937871,147.37 C181.013871,147.37 180.551871,146.95 180.551871,145.984 L180.551871,133.846 L183.743871,133.846 C185.969871,133.846 187.439871,135.652 187.439871,138.34 L187.943871,138.34 L187.943871,128.722 L187.439871,128.722 C187.439871,131.41 185.969871,133.216 183.743871,133.216 L180.551871,133.216 L180.551871,120.616 C180.551871,119.65 181.013871,119.23 181.937871,119.23 L189.119871,119.23 C192.605871,119.23 194.915871,121.372 194.915871,124.564 L195.419871,124.564 L194.999871,119.23 L194.957871,118.6 L174.041871,118.6 L174.041871,119.23 L176.183871,119.23 C177.107871,119.23 177.569871,119.65 177.569871,120.616 L177.569871,145.984 C177.569871,146.95 177.107871,147.37 176.183871,147.37 L174.041871,147.37 L174.041871,148 L194.957871,148 Z" id="SHARE" fill="#FFFFFF" fill-rule="nonzero"></path>
            </g>
        </g>
    </g>
</svg>